<?xml version="1.0" standalone="no"?>
<svg viewBox="-350 -150 1500 1500" xmlns="http://www.w3.org/2000/svg" style="width: 292.5px; height: 292.5px; justify-content: center; align-self: center; transform: scale(1, 1);"><rect x="-350" y="-150" width="100%" height="100%" fill="#aea1ff" rx="30"></rect><g transform="rotate(0 493.53670501708984 600.3204383850098)"><g id="body_Whatever" data-name="body/Whatever" transform="translate(0 459)"><path id="_Skin" data-name="âœ‹ Skin" d="M1102.992,305.357c10.243-5.347,20.244-11.156,30.087-17.2,6.933-4.147.8-14.593-6.314-10.818-3.635,1.931-7.256,3.88-10.89,5.8a63.788,63.788,0,0,0,7.888-8.068l-.164-.163c9.164-8.211-2.607-23.7-13.029-16.958-9.191,6.662-18.466,13.46-29.016,17.847-21.852,9.266-45.955,10.8-69.409,11.067-8.583-.645-16.781.842-25.109,2.5,3.265-13.1,11.436-22.989,15.77-35.675,3.2-12.808-15.29-21.532-21.842-9.221-1.608,3.023-3.141,6.082-4.64,9.155-14.162,12.881-37.81,11.747-52.093,25.577-8.135,7.221-12.117,17.018-13.69,26.852-1.068,6.677.592,13.371-3.445,19.285-19.519,27.608-50.361,71.246-66.024,101.629-11.09-72.2-40.7-161.5-71.292-227.514-10.116-21.113-21.689-41.743-36.881-59.639,1.722-5.968-4.356-16.562-8.221-13.3-11.9-14.534-32.927-18.3-49.837-25.521-22.827-9.761-41.766-30.049-51.076-53.109C611.8,3.964,582.356-1.614,541.517.327c-39.084-.049-68,16.668-76.529,56.454-17.325,30.2-58.231,25.2-87.66,33.2a291.549,291.549,0,0,0-62.391,22.215C292.808,91.2,213.553,179.3,206.349,201.97c4.241.822,8.456,1.812,12.633,3.017,3.72,1.076,2.158,6.694-1.594,5.8a116.349,116.349,0,0,0-14.089-2.429c-.144.452-.27.9-.364,1.344-.53-.036-1.059-.081-1.589-.117a18.909,18.909,0,0,1,3.408,2.237c2.664,2.212-.8,6.481-3.635,4.719-2.667-2-6.16-1.68-9.359-2.35-.19,6.578-23.663-.781-27.309-2.961-16.205-2.027-32.876.148-48-7.667-20.129-4.239-40.409-8.927-60.312-14.325-5.269,2.054-10.221,9.4-6.036,14.8,2.354,2.454-.672,6.462-3.636,4.718-9.941-5.851-17.629-14.985-24.147-24.825-3.068-3.1-8.514-2.429-12.636-3.714a6.6,6.6,0,0,0-.871,3.226c-17.485,2.878-5.012,21.975,3.778,27.925-4.663,3.036-4.84,8.982-4.432,13.947a6.718,6.718,0,0,0-.458,5.942c3.288,7.577,10.4,13.958,15.806,20.1,5.97,6.78,11.293,13.6,18.557,19.092,27.688,21.106,61.1,32.905,95.379,37.52,12.171,1.87,29.678,4.731,37.214,15.022-1.849,12.214-5.244,23.928-8.324,35.839-4.307,15.809-4.014,32.361-4.071,48.478a1.186,1.186,0,0,0-1.93.538c-1,6.681-1.747,13.513-5.808,19.127a162.216,162.216,0,0,0-7.26,32.542c-5.332,52-6.605,105.524,5.417,156.709a185.446,185.446,0,0,0,22.464,53.653,11.335,11.335,0,0,0,12.418,5.435c14.81,7.694,33.467,10.16,49.43,8.206C291.41,668.1,272.448,705.2,348.751,693.837c131.707-16.778,264.811,16.193,396.238-3.164,3.237,25,45.611,17.83,60.33,7.26,44.134-32.809,66.048-136.685,88.2-189.38,15.225-41.534,40.719-115.1,74.106-142.968,10.011-7.83,22.112-11.952,34.22-15.28,45.188-11.644,90.55-22.656,135.824-33.977,7.678-1.891,6.3-14.985-1.912-14.145C1124.858,303.3,1113.925,304.306,1102.992,305.357Z" transform="translate(-86.25 -22)" fill="#d08b5b"></path><path id="_Ink" data-name="ðŸ– Ink" d="M769.881,678.462a5.8,5.8,0,0,1-4.327-2c-40.589-1.633-80.509-2.828-118.65-3.551-31.791-.611-64.738-.92-97.926-.92-36.907,0-75.445.383-114.544,1.14-34.261.665-70.164,1.627-106.71,2.86-5.117.169-10.322.362-15.355.549l-.041,0h-.022c-12.179.452-24.773.919-37.162,1.088-.167,0-.339,0-.512,0a43.659,43.659,0,0,1-7.723-.71,34.244,34.244,0,0,1-7.824-2.346,18.064,18.064,0,0,1-6.19-4.3,10.883,10.883,0,0,1-2.823-6.581l-.019-.325a32.785,32.785,0,0,1-3.65.77,4.386,4.386,0,0,1-.662.051,4.072,4.072,0,0,1-.923-.1l-.246-.066a37.132,37.132,0,0,1-10.794,1.47c-9.768,0-20.16-2.9-29.329-5.455-1.791-.5-3.483-.971-5.142-1.414l-1.105-.292a71.65,71.65,0,0,1-17.349-6.616,47,47,0,0,1-14.05-12.053,81.431,81.431,0,0,1-9.292-14.958,110.631,110.631,0,0,1-6.353-16.562c-2.923-9.785-5.022-20.849-6.607-34.82a262.188,262.188,0,0,1,.391-65.1c-1.768-17.727-.007-35.958,1.949-53.111,1.041-9.167,2.189-17.616,3.51-25.83.77-4.787,1.768-9.476,2.81-14.26.138-.632.264-1.265.4-1.936l0-.013c.259-1.3.528-2.635.874-3.942l.235-.839a7.069,7.069,0,0,1-.912.059,8.645,8.645,0,0,1-4.128-1.128,9.246,9.246,0,0,1-4.111-4.7,17.029,17.029,0,0,1-1.148-6.256c-.2-11.982,1.112-24.314,2.386-36.24l.021-.192q.137-1.282.273-2.559c1.413-13.2,3.335-26.082,5.71-38.291l.636-3.259c1.744-8.85,3.926-19.049,7.753-28.1-14.285-2.428-28.237-4.967-41.87-9.29a127.519,127.519,0,0,1-19.54-8.01,41.6,41.6,0,0,1-6.929-1.7l-.006,0h0c-.69-.211-1.4-.43-2.1-.632-4.506-1.317-9.014-2.882-13.4-4.65a155.878,155.878,0,0,1-26.09-13.17A124.042,124.042,0,0,1,32.63,235.662a109.388,109.388,0,0,1-15.3-17.963l-.609-.913a71.04,71.04,0,0,1-6.33-11.8c-2.167-5.346-2.848-9.763-2.024-13.128a8.783,8.783,0,0,1,4.423-5.766,41.562,41.562,0,0,1-9.051-10.978A32.135,32.135,0,0,1,.909,168.69,18.463,18.463,0,0,1,.014,162.5a8.919,8.919,0,0,1,3.46-7.112,12.13,12.13,0,0,1,7.336-2.13,19.189,19.189,0,0,1,10.284,3.022c4.454,2.979,7.87,7.17,11.173,11.224l.307.377c3.616,4.448,7.587,8.861,12.14,13.489,1.137,1.152,2.287,2.282,3.417,3.357l1.163,1.093c-.182-.435-.344-.88-.481-1.32a18.371,18.371,0,0,1,.259-11.54,14.545,14.545,0,0,1,7.481-8.578,11.686,11.686,0,0,1,4.975-1.06,23.408,23.408,0,0,1,8.443,2l.662.271a159.459,159.459,0,0,0,17.77,6.25,221.469,221.469,0,0,0,26.809,5.616c9.027,1.378,18.272,2.4,27.212,3.391,7.147.791,14.538,1.609,21.769,2.6A258.632,258.632,0,0,1,193.575,189a92.627,92.627,0,0,1,9-22.824,142.466,142.466,0,0,1,13.608-20.335,180.59,180.59,0,0,1,19.031-20.431,197.318,197.318,0,0,1,21.463-17.094,229.916,229.916,0,0,1,23.459-14.142c7.808-4.109,16.225-8,25.018-11.574a399.758,399.758,0,0,1,52.972-16.981c15.6-3.935,32.748-7.531,53.977-11.317a6.986,6.986,0,0,1,1.218-.107c2.64,0,5.037,1.437,7.266,2.909q.333.22.658.438l.048.032c1.96,1.309,3.652,2.44,5.172,2.44a2.591,2.591,0,0,0,1.259-.312c6.442-3.46,12.644-8.428,18.959-15.189,8.382-8.981,15.155-19.277,21.7-29.234,2.653-4.034,5.4-8.2,8.225-12.256A6.717,6.717,0,0,1,482.218,0a7.4,7.4,0,0,1,3.618.959,6.768,6.768,0,0,1,2.6,2.544,5.985,5.985,0,0,1-.314,6.235l-2.2,3.641c-4.116,6.762-9.068,14.686-14.595,22.18a126,126,0,0,1-17.551,19.669A76.579,76.579,0,0,1,442.782,63.4a64.324,64.324,0,0,1-12.388,5.842A52.129,52.129,0,0,1,414.4,72.229a25.006,25.006,0,0,1-7.267-.981l-.874-1.273c.267.391.552.808.874,1.273a312.944,312.944,0,0,0,31.685,38.488c10.244,10.727,21.771,21.636,36.275,34.332,26.446,23.138,55.278,43.863,80.226,61.473l2.293,1.617A383.778,383.778,0,0,0,619.1,151.13a372.8,372.8,0,0,0,47.787-68.051c-4.789-.577-9.574-3.32-13.8-5.739l-.049-.028c-.69-.4-1.343-.769-1.994-1.134-6.743-3.787-11.61-7.657-15.32-12.18a31.1,31.1,0,0,1-4.291-6.9,39.479,39.479,0,0,1-2.5-7.463,104.608,104.608,0,0,1-2.017-15.869c-.22-2.9-.447-5.9-.8-8.814a.69.69,0,0,1,.159-.556.963.963,0,0,1,.718-.284,1.024,1.024,0,0,1,.643.21c4.289,3.563,6.145,9.018,7.939,14.294.27.793.548,1.612.83,2.407,2.311,6.495,4.911,11.735,10.09,16.2,4.871,4.2,10.848,7.308,16.581,10.04.9.427,2.915,1.068,5.248,1.81l.005,0c5.488,1.745,13,4.135,14.176,6.229a64.566,64.566,0,0,1,14.734-1.709,71.068,71.068,0,0,1,29.139,6.486,94.658,94.658,0,0,1,25.417,17.042,168.642,168.642,0,0,1,24.171,28.433,353.573,353.573,0,0,1,19.349,32.018,506.612,506.612,0,0,1,31.9,71.929c4.658,12.942,8.645,25.768,11.852,38.121a361.74,361.74,0,0,1,7.929,39.11c2.927,20.283,5.041,42.353,6.465,67.473l.156,2.817c18.285-28.7,37.793-58.308,57.98-88.01a27.152,27.152,0,0,1-.393-17.769,42.006,42.006,0,0,1,9.282-15.721,55.825,55.825,0,0,1,13.9-10.807,169.282,169.282,0,0,1,15.923-7.658c1.549-.679,3.148-1.381,4.713-2.084l1.621-.733c5.723-2.611,11.743-5.6,17-9.757a60.7,60.7,0,0,0,6.182-5.942,50.344,50.344,0,0,1,7.588-6.988,17.735,17.735,0,0,1,9.919-3.016,13.01,13.01,0,0,1,8.006,2.466,9.21,9.21,0,0,1,2.619,3.224,11.335,11.335,0,0,1,1.085,4.676,30.885,30.885,0,0,1-1.507,9.69,82.739,82.739,0,0,1-3.5,9.21,67.807,67.807,0,0,1-4.917,9.182,78.767,78.767,0,0,1-6.184,8.378,3.171,3.171,0,0,1-.666.6l-.174.109a158.622,158.622,0,0,0,18.88,2.15c2.435.112,4.9.168,7.318.168a148.485,148.485,0,0,0,31.222-3.248,138.992,138.992,0,0,0,37.06-13.6c2.334-1.265,4.662-2.637,6.913-3.963,3.659-2.157,7.443-4.387,11.307-6.185a43.732,43.732,0,0,1,12.19-3.832c.986-.151,2.022-.256,3.17-.32.04,0,.082,0,.123,0a3.069,3.069,0,0,1,2.412,1.4,2.566,2.566,0,0,1,.355,2.4c-.412,1.039-.821,2-1.25,2.931a69.18,69.18,0,0,1-7.336,12.473,63.766,63.766,0,0,1-10.007,10.774l-.577.482c2.675-.925,5.29-1.961,7.771-3.08,5.41-2.436,10.727-5.371,15.869-8.208,9.108-5.026,18.522-10.222,28.79-12.842.678-.178,1.409-.353,2.3-.55a5.949,5.949,0,0,1,1.249-.138A4.5,4.5,0,0,1,1164,235.44a5.292,5.292,0,0,1-.724,5.608c-.547.7-1,1.263-1.43,1.78a183.214,183.214,0,0,1-23.8,24.58c-2.992,2.542-6.091,5.015-9.209,7.351,9.36-2.836,19.127-6.341,29.029-10.42a4.523,4.523,0,0,1,1.723-.357,4.843,4.843,0,0,1,3.654,1.892,7.791,7.791,0,0,1,1.723,3.874,13.482,13.482,0,0,1-1.126,7.255,22.486,22.486,0,0,1-4.336,6.226c-3.619,3.815-8.352,6.964-12.155,9.494l-.323.215a112.857,112.857,0,0,1-24.6,12.04c-16.414,5.932-33.576,8.64-51.182,11.109l-8.412,1.172c-8.028,1.122-16.575,2.353-25.057,3.966a193.982,193.982,0,0,0-24.453,6.129,113.273,113.273,0,0,0-22.689,10.114,90.7,90.7,0,0,0-10.321,7.121,85.668,85.668,0,0,0-9.445,8.8,135.28,135.28,0,0,0-17.282,23.943c-5.076,8.717-9.468,17.824-13.457,26.366-7.191,15.4-14.115,32.126-22.45,54.231-5.008,13.264-9.638,26.921-14.117,40.128-1.916,5.65-3.9,11.492-5.883,17.231-6.1,17.63-13.439,35.137-20.533,52.067L876,570.068a484.863,484.863,0,0,1-25.658,52.908c-4.94,8.683-10.15,17.042-15.487,24.844-5.632,8.233-11.615,16.155-17.785,23.548a4.279,4.279,0,0,1-3.291,1.717,4.361,4.361,0,0,1-2.531-.865,5.856,5.856,0,0,1-1.833-2.189,5.6,5.6,0,0,1-.576-2.821,5.281,5.281,0,0,1,1.142-2.932,308.081,308.081,0,0,0,18.5-26.768c5.453-8.824,10.811-18.411,15.923-28.494,4.716-9.3,9.23-18.994,13.8-29.633,4.019-9.354,7.988-19.227,12.134-30.184,3.945-10.42,7.585-21.158,11.106-31.543l0-.01c2.681-7.909,5.453-16.087,8.341-24.067l3.975-10.966c5.047-13.9,10.508-28.822,16.245-43.723a580.014,580.014,0,0,1,23.73-54.021l.943-1.847a221.476,221.476,0,0,1,14.565-24.745,122.023,122.023,0,0,1,18.712-21.658,97.124,97.124,0,0,1,9.985-7.857,104.917,104.917,0,0,1,10.667-6.406,130.91,130.91,0,0,1,22.928-9.226c15.971-4.851,33.006-7.345,49.085-9.482L1071,302.279c13.45-1.787,27.73-3.847,41.458-7.621A111.051,111.051,0,0,0,1135.095,286a92.674,92.674,0,0,0,8.35-4.949,230.281,230.281,0,0,1-23.46,5.559c-3.813.7-7.71,1.238-11.58,1.611-5.294.524-10.752.779-16.685.779-4.085,0-8.385-.121-13.145-.369a.872.872,0,0,1-.788-.836.663.663,0,0,1,.569-.733c6.306-1.122,13.027-2.559,21.151-4.525l2.109-.516a6.062,6.062,0,0,1,1.461-3.589c2.321-2.825,6.024-4.734,9.6-6.58a58.822,58.822,0,0,0,5.156-2.871,162.824,162.824,0,0,0,13.97-10.19c3.974-3.243,7.934-6.785,11.77-10.529l.105-.1-.052.051-.053.051c-3.691,1.7-7.375,3.616-10.937,5.464a152.269,152.269,0,0,1-19.524,8.987,104.282,104.282,0,0,1-26.25,5.679l-.554.044-.555.036c-2.719.2-5.481.313-8.153.426-6.511.276-13.242.562-19.757,1.994a1.022,1.022,0,0,1-.223.026.726.726,0,0,1-.733-.6.848.848,0,0,1,.526-.961c7.171-2.983,14.429-4.3,22.114-5.7l.066-.012c.865-.157,1.759-.32,2.64-.482a2.542,2.542,0,0,1,1.44-1.63l2.159-1.031c6.272-3.012,12.35-6.136,17.771-11.219a56.332,56.332,0,0,0,11.6-15.35c-7.509,1.647-14.492,5.9-21.245,10.011a125.781,125.781,0,0,1-11.676,6.559,146.52,146.52,0,0,1-36.8,11.671l-1.449.248a157.645,157.645,0,0,1-25.834,2.2,117.99,117.99,0,0,1-24.978-2.516,78.753,78.753,0,0,1-22.839-8.587.587.587,0,0,1-.3-.68.734.734,0,0,1,.7-.53.744.744,0,0,1,.115.009c3.59.588,7.215,1.251,10.72,1.891l.02,0,.027.005c2.372.433,4.824.881,7.234,1.3a3.522,3.522,0,0,1-1.115-2.089,3.019,3.019,0,0,1,.775-2.441,64.255,64.255,0,0,0,12.334-20.888l.519-1.506.169-.482.009-.026a37.868,37.868,0,0,0,1.757-6.1c.419-2.5.18-4.369-.729-5.727a6.012,6.012,0,0,0-5.2-2.333,11.68,11.68,0,0,0-4.612.983c-3.734,1.684-6.722,4.961-9.612,8.13a52.389,52.389,0,0,1-5.508,5.48c-5.977,4.833-12.914,8.295-18.29,10.77l-1.363.618c-1.763.793-3.576,1.58-5.329,2.34-9.407,4.082-19.133,8.3-26.519,15.761a43.7,43.7,0,0,0-6.33,7.974,29.51,29.51,0,0,0-3.81,9.406,19.945,19.945,0,0,0,.2,9.239,16.335,16.335,0,0,0,.7,1.937c.578,1.4,1.077,2.617.531,4.3-.692,2.11-2.607,4.54-4.3,6.684-.821,1.042-1.6,2.025-2.194,2.916-2.164,3.207-4.348,6.467-6.46,9.62-3.623,5.422-7.291,10.948-10.838,16.291l-.066.1-1.926,2.9c-8.185,12.345-16.484,25.036-25.37,38.8-2.729,4.229-5.472,8.5-8.154,12.694l-4.056,6.357q-.873,1.362-1.745,2.728l-.4.623-.319.5c-.6.941-1.158,1.818-1.658,2.607l-1.679,2.64a2.831,2.831,0,0,1-.05,1.58,7.212,7.212,0,0,1-3.241,3.869l-.259.152c-13.157,20.8-26.4,42.019-39.2,62.543l-.1.163c-7.936,12.719-16.143,25.872-24.244,38.786-1.265,11.552-2.282,21.685-3.11,30.978-2.243,25.093-3.545,48.085-3.98,70.29-.16,8.294.288,16.753.722,24.934l0,.039c.159,3.007.324,6.117.456,9.168.244,5.5.579,10.959,1,16.236l.316,3.834c.427,5.326.653,10.52-1.233,15.521a6.448,6.448,0,0,1-2.274,3.008A5.578,5.578,0,0,1,769.881,678.462ZM177.329,286.917a23.977,23.977,0,0,1,10.936,2.971,22.038,22.038,0,0,1,7.46,6.781,6.824,6.824,0,0,1,2.14,3.849,25.661,25.661,0,0,1,1.91,6.951,4.1,4.1,0,0,1-.86,3.308c.936,14.372-.256,29.682-3.645,46.806-3.238,16.361-8.06,32.251-12.349,45.637l-.947,2.942-.609,1.865c-1.9,5.839-3.884,11.748-5.8,17.462l0,.012c-4.251,12.682-8.648,25.8-12.432,38.843a329.421,329.421,0,0,0-9.183,39.693c-3.324,20.737-3.6,43.266-.831,66.96l.183,1.526a188.117,188.117,0,0,0,6.351,32.149,105.735,105.735,0,0,0,5.917,15.356,74.614,74.614,0,0,0,8.5,13.729,38.556,38.556,0,0,0,11.244,9.775,57.43,57.43,0,0,0,13.864,5.405l.562.15c2.588.681,5.252,1.457,7.828,2.208l.013,0c6.751,1.967,13.732,4,20.65,4.758a29.4,29.4,0,0,0,3.17.172c6.852,0,12.886-2.361,19.273-4.861.561-.219,1.258-.492,1.927-.751l.01-.01c7.769-6.876,14.082-15.6,19.3-26.676,4.056-8.611,7.415-18.46,10.891-31.934a334.673,334.673,0,0,0,8.067-42.935,397.543,397.543,0,0,0,2.82-43.418c.312-26.749-1.767-55.2-6.356-86.976-4.3-29.793-10.215-59.816-15.939-88.85l-.181-.92c-.877-4.447-1.789-8.966-2.671-13.336l0-.02v-.006c-2.074-10.274-4.219-20.9-6.063-31.388l-1.561-8.8c-.771-4.374-1.66-9.542-2.408-14.706-.916-6.312-1.217-12.409-1.535-18.863l-.044-.9a94.155,94.155,0,0,0-33.4-32.331,123.69,123.69,0,0,0-30.66-12.45c-16.986-4.578-35.093-6.443-52.6-8.247-13.771-1.419-28.009-2.885-41.5-5.664a185.192,185.192,0,0,1-29.771-9.013l-1.328-.517a16.916,16.916,0,0,0-5.753-1.384c-2.582,0-4.38,1.29-5.5,3.944a9.762,9.762,0,0,0-.616,5.625,12.417,12.417,0,0,0,2.346,5.175c2.532,3.364,6.379,6.233,11.762,8.771a111.881,111.881,0,0,0,14.032,5.155l.486.154a130.379,130.379,0,0,0,16.15,4c1.654.3,3.33.535,4.952.762a53.75,53.75,0,0,1,11.229,2.408,2.64,2.64,0,0,1,1.664,2.6,2.039,2.039,0,0,1-1.664,1.92,27.891,27.891,0,0,1-6.416.7,70.377,70.377,0,0,1-13.338-1.737l-.166-.033a139.256,139.256,0,0,1-21.33-6.03c-1.5-.553-2.758-1.029-3.954-1.5l-1.016-.4c.968.7,2,1.442,3.16,2.261a.357.357,0,0,1,.121.4.286.286,0,0,1-.269.217.339.339,0,0,1-.111-.02A100.393,100.393,0,0,1,50.285,193.2,116.638,116.638,0,0,1,30.757,175.58l-.572-.652c-.618-.709-1.346-1.622-2.188-2.679a74.476,74.476,0,0,0-7.314-8.26c-3.283-3.035-6.131-4.511-8.71-4.511a6.29,6.29,0,0,0-2.848.679,3.781,3.781,0,0,0-2.145,2.673,8.212,8.212,0,0,0,.658,4.486,29.781,29.781,0,0,0,2.812,5.292,107.915,107.915,0,0,0,7.5,9.858c.36.434.73.881,1.053,1.276l.549.678a19.345,19.345,0,0,1,7.589,2.008,65.573,65.573,0,0,1,6.894,3.89l.468.29a227.077,227.077,0,0,0,23.54,12.51c7.38,3.469,15.1,6.517,22.558,9.464,8.737,3.451,17.772,7.02,26.321,11.286a.16.16,0,0,1,.094.187.228.228,0,0,1-.214.166l-.03,0a196.152,196.152,0,0,1-29.821-7.37l-.435-.136-.435-.145c-5.728-1.881-11.619-4.062-18.011-6.67a188.16,188.16,0,0,1-19.219-9.1c-1.669-.911-3.364-2.021-5.158-3.2-4.265-2.791-8.676-5.677-13.282-6.255a9.428,9.428,0,0,0-1.194-.081c-.23,0-.454.01-.666.03a3.565,3.565,0,0,0-3.1,1.8c-2.1,3.975,2.877,13.186,3.9,14.992a89.869,89.869,0,0,0,12.32,16.9,119.789,119.789,0,0,0,33.93,25.2c4.019,2.051,8.337,3.988,13.2,5.92-.752-.665-1.5-1.359-2.06-1.89a75.533,75.533,0,0,1-7.505-8.21,65.8,65.8,0,0,1-6.12-9.285l-.925-1.76c-1.474-2.855-3.034-6.192-3.422-9.3a8.871,8.871,0,0,1,.476-4.507,7.611,7.611,0,0,1,3.3-3.629,12.086,12.086,0,0,1,6.269-1.612,23.018,23.018,0,0,1,7.07,1.271c.242.075.487.159.724.24l.146.05c1.691.593,3.539,1.358,5.649,2.34a113.183,113.183,0,0,1,15.407,9.164c1.813,1.213,3.685,2.465,5.553,3.657a70.775,70.775,0,0,0,11.312,5.922,68.1,68.1,0,0,0,12.176,3.683l.813.164c.826.163,1.666.322,2.478.475,7.363,1.391,14.975,2.829,20.053,8.815a2.721,2.721,0,0,1,.326,2.858,2.065,2.065,0,0,1-1.872,1.279,2.45,2.45,0,0,1-.784-.137c-5.476-1.847-11.147-3.21-16.631-4.527-5.059-1.215-10.291-2.472-15.3-4.1a69.308,69.308,0,0,1-14.556-6.454c-2.5-1.508-4.99-3.138-7.4-4.714l0,0c-3.3-2.164-6.718-4.4-10.23-6.363a50.812,50.812,0,0,0-10.087-4.456l-1.935-.571a9.517,9.517,0,0,0-2.5-.467,2.67,2.67,0,0,0-.894.135,1.717,1.717,0,0,0-1.075.758c-.231.476-.013,1.1.262,1.893l.006.017c.053.153.108.31.163.476l.053.164c4.773,14.762,19.172,25.84,27.33,31.13,2.447,1.594,5.078,3.138,7.82,4.591a148.716,148.716,0,0,0,24.206,10.006c8.331,2.7,17,4.969,25.385,7.16l.045.012c2.724.712,5.541,1.448,8.3,2.188.112.031,11.5,3.214,15.231,4.394C176.466,286.934,176.894,286.917,177.329,286.917ZM836.255,404.568c-.2.047-.4.1-.592.157l-.007,0-.041.012c-4,1.122-8.1,2.138-12.061,3.121-1.538.382-3.282.814-4.96,1.24-9.262,2.329-19.132,5.1-28.55,9.519-1.661,20.968-4.058,42.226-6.375,62.784v.006c-.33,2.927-.7,6.245-1.067,9.486l-.537,4.815c4.571-8.481,8.762-15.949,12.811-22.83C808.2,450.216,822.118,427.233,836.255,404.568Zm-678.091,2.39a41.436,41.436,0,0,1-.565,6.174c-.12.846-.233,1.64-.325,2.435-.247,2.126-.475,4.291-.7,6.385l0,.024c-.243,2.313-.5,4.7-.773,7.051-1.17,9.751-2.043,18.6-2.669,27.049-.44,5.9-.721,11.825-.96,17.351,4.764-17.807,10.924-35.563,16.88-52.735l.025-.071c1.123-3.237,2.284-6.584,3.416-9.875a24.572,24.572,0,0,1-3.672-.751l-2.119-.571-.425-.108-.006,0C164.723,408.921,161.093,408,158.164,406.958Zm966.464-129.122-.453.321Zm2.961-2.148q-.421.311-.843.62Q1127.158,276.007,1127.589,275.688ZM849.835,393.938v0l.078-.123.08-.125,1.658-2.607.549-.861.168-.264,1.745-2.728.041.95a5.69,5.69,0,0,1-1.185,3.96,5.355,5.355,0,0,1-3.133,1.8ZM232.469,242.118c-2.792,0-5.824-1.821-8.756-3.582a33.322,33.322,0,0,0-4.668-2.5,65.309,65.309,0,0,0-35.741-3.458,63.662,63.662,0,0,0-11.469,3.23.518.518,0,0,1-.189.038.549.549,0,0,1-.5-.445.528.528,0,0,1,.246-.614,62.581,62.581,0,0,1,13.979-5.576,58.426,58.426,0,0,1,14.837-1.928c1.695,0,3.412.076,5.1.226a62.419,62.419,0,0,1,17.4,4l.538.211.9.343a39.084,39.084,0,0,1,6.357,2.871c2.307,1.4,3.7,2.967,4.256,4.785a1.677,1.677,0,0,1-.213,1.474,2.154,2.154,0,0,1-1.6.907C232.8,242.112,232.632,242.118,232.469,242.118Z" transform="translate(-89 5.251)"></path></g><g transform="translate(225 0)"><g><g><path id="_Skin" data-name="âœ‹ Skin" d="M340.529,155c-2.153-18.915.633-58.451.82-60.853,1.18-15.185-5.935-75.148-19.385-69.623C299.4,6.666,269.351,2.722,241.251.838,182.883-3.076,120.791,5.909,75.72,45.189c-22.289,20.4-43.988,50.068-42.244,80.96C13.226,155.431-15.324,195.6,9.908,229.831c8.577,10.937,22.208,15.01,32.982,23.293,21.672,17.48,35.268,42.566,57.145,59.942,57.96,52.083,156.377,62.963,213.323,3.723,44.035-42.9,36.915-107.09,29.169-161.786C337.321,118.23,344.728,191.9,340.529,155Z" transform="translate(65.001 149)" fill="#d08b5b"></path><path id="_Ink" data-name="ðŸ– Ink" d="M250.311,443.271a134.042,134.042,0,0,1-19.031-1.4,105.442,105.442,0,0,1-21.491-5.2,40.754,40.754,0,0,1-10.072-5.32,45.226,45.226,0,0,1-8.2-7.871,6.294,6.294,0,0,1-.675-6.317,3.866,3.866,0,0,1,3.632-2.362,5.178,5.178,0,0,1,.623.039,118.17,118.17,0,0,1,21.024,4.124l1,.317a104.128,104.128,0,0,0,21.541,4.62c3.694.358,7.44.539,11.135.539a110.436,110.436,0,0,0,33.375-5.089,96.9,96.9,0,0,0,16.843-7.179,103.553,103.553,0,0,0,15.255-10.132,108.268,108.268,0,0,0,24.252-27.3c7.019-11.267,11.672-24.011,14.225-38.96,2.453-14.362,2.683-29.15,2.584-41.72-.228-29.893-1.2-61.166-2.89-92.951l-.28-5.159c-.715-13.089-1.64-30.351-2.449-47.81-.269-5.848-.654-10.624-1.211-15.03a39.576,39.576,0,0,1-14.309-13.79,141.029,141.029,0,0,1-20.441,6.43,122.385,122.385,0,0,1-29.191,3.585,115.192,115.192,0,0,1-17.182-1.283c-4.14,1.71-8.423,3.236-12.73,4.536-1.2.53-2.372,1.042-3.5,1.523a212.419,212.419,0,0,1-31.93,10.98l-2.7.673a110.358,110.358,0,0,1-18.2,3.267,26.538,26.538,0,0,1-3.291,1.01,53.5,53.5,0,0,1-12.614,1.5c-1.507,0-3.032-.064-4.535-.189a8.47,8.47,0,0,1-6.809-4.393,6.954,6.954,0,0,1-.8-3.361,7.468,7.468,0,0,1,1.063-3.656c2.223-3.814,4.515-7.7,6.81-11.55a214.565,214.565,0,0,1-24.5,8.419c-7.393,2.082-15.461,4.046-25.391,6.18-2.254.481-4.55.941-6.77,1.387l-.008,0-.008,0c-2.255.453-4.587.921-6.873,1.409-.724.154-1.531.291-2.386.436-3.024.512-6.445,1.092-8.505,2.754-2.272,1.824-3.263,5.465-4.138,8.678-.248.912-.483,1.774-.732,2.532-1.555,4.676-2.889,9.014-4.08,13.26A275.4,275.4,0,0,0,89.65,200.5a259.542,259.542,0,0,0-3.231,27.6c-.243,3.81-.343,7.693-.44,11.448-.138,5.351-.281,10.884-.839,16.292a6.422,6.422,0,0,1-1.929,4.023,5.5,5.5,0,0,1-3.775,1.528,5.9,5.9,0,0,1-3.916-1.571c-.437-.385-.9-.8-1.364-1.213l-.676-.617a68.99,68.99,0,0,1-9.169-9.76c-.47-.646-.931-1.335-1.371-2.05a.328.328,0,0,1-.2-.069l-.734-.553c-7.713-5.742-14.351-8.653-19.73-8.653a11.913,11.913,0,0,0-9.756,4.785c-2.571,3.258-3.86,7.467-4.867,11.156l-1.874,7a121.649,121.649,0,0,0-3.02,13.849,53.032,53.032,0,0,0-.04,16.26,29.684,29.684,0,0,0,6.5,14.7,18.387,18.387,0,0,0,11.279,6.39,14.147,14.147,0,0,0,1.947.126,34.415,34.415,0,0,0,4.475-.394l.027,0q.456-.06.913-.119a15,15,0,0,1,1.871-.106c.661,0,1.33.031,1.976.061h.005c.651.03,1.324.061,1.991.061.562,0,1.064-.022,1.537-.067.153-.015.305-.023.453-.023a3.964,3.964,0,0,1,3.448,1.984,5.721,5.721,0,0,1,.308,5.369,18.167,18.167,0,0,1-2.81,4.15,32.426,32.426,0,0,1,2.471,2.38,12.33,12.33,0,0,1,6.009,4.49,10.188,10.188,0,0,1,2.04,5.56c.127.446.245.923.37,1.5l2.146,3.481c.526.852.988,1.59,1.414,2.258A108.707,108.707,0,0,0,90.14,364.5c2.683,2.443,5.5,4.83,8.219,7.139a183.861,183.861,0,0,1,13.711,12.452l.8.841a52.5,52.5,0,0,1,8.591,11.12c2.445,4.623,3.088,9.006,1.966,13.4a4.689,4.689,0,0,1-4.367,3.27,3.4,3.4,0,0,1-2.043-.66c-4.383-3.253-7.526-7.73-10.565-12.06a76.126,76.126,0,0,0-6.675-8.6c-3.244-3.446-6.722-6.77-10.086-9.984l0,0c-3.272-3.126-6.655-6.359-9.821-9.7A78.044,78.044,0,0,1,65.4,350.085a11.648,11.648,0,0,1-8.016,3.277,10.979,10.979,0,0,1-6.052-1.861,12.382,12.382,0,0,1-4.223-4.766,37.879,37.879,0,0,1-4.271,1.62,8.617,8.617,0,0,1-2.517.393,7.433,7.433,0,0,1-6.3-3.59,9.713,9.713,0,0,1-1.478-4.405,9.444,9.444,0,0,1,.8-4.738,30.273,30.273,0,0,1,5.809-8.68,36.826,36.826,0,0,1-19.821-9.63,40.67,40.67,0,0,1-11.188-21.54,60.016,60.016,0,0,1-1.1-12.283A77.3,77.3,0,0,1,8.19,271.595a121.654,121.654,0,0,1,7.25-25.11c.627-1.532,1.231-2.9,1.849-4.171a1.3,1.3,0,0,1-.99-.48c-.755-1.031-1.576-2.011-2.37-2.958a28.945,28.945,0,0,1-4.17-5.911c-.332-.682-.678-1.378-1.013-2.051a76.048,76.048,0,0,1-3.366-7.419c-2.615-7.059-3.752-14.963-4.45-21.06a158.58,158.58,0,0,1,1.18-42.75,170.791,170.791,0,0,1,9.426-35.324A173.628,173.628,0,0,1,28.118,91.949a11.606,11.606,0,0,1-2.06-1.38l-.319-.278-.518-.468a8.553,8.553,0,0,1-2.716-6.22,9.838,9.838,0,0,1,2.716-7.1l1.093-1.1a28.988,28.988,0,0,1,4.812-3.961c.323-.217.662-.426,1.008-.623a9.567,9.567,0,0,1-.76-7.479,9.927,9.927,0,0,1,5-6.127,17.589,17.589,0,0,1,8.3-1.832,29.707,29.707,0,0,1,12.379,2.823A160.043,160.043,0,0,1,89.509,35.715,310.548,310.548,0,0,1,133.8,17.02a382.367,382.367,0,0,1,46.481-12.4A211.134,211.134,0,0,1,222.145,0c1.919,0,3.842.035,5.715.1l1.229.048a140.719,140.719,0,0,1,19.4,1.822c7.586,1.375,13.556,3.564,18.249,6.693a2.286,2.286,0,0,1,1.6-.688,1.954,1.954,0,0,1,.849.193c11.52,5.5,24.119,9.59,36.3,13.548l2.9.942A177.356,177.356,0,0,0,348.6,30.835a8.341,8.341,0,0,1,3.992,1.438,8.081,8.081,0,0,1,2.732,3.1,6.289,6.289,0,0,1-.441,6.414c-.8,1.227-1.569,2.449-2.279,3.586l1.134-.119h.006c.861-.091,1.752-.185,2.627-.273.18-.018.364-.027.547-.027a7.369,7.369,0,0,1,5.222,2.5A7.73,7.73,0,0,1,364.386,53a74.571,74.571,0,0,1-.83,7.5h.03l.258,0a11.147,11.147,0,0,1,4.363.845c3.408,1.44,5.489,4.14,6.361,8.256.731,3.449.494,7.342.19,11.035-.869,10.526-4.908,20.378-11.082,27.031a42.951,42.951,0,0,1,6.4,8.552,46.562,46.562,0,0,1,4.236,10.179,48.059,48.059,0,0,1,1.96,16.681l-.134,1.673c-.546,6.379-1.641,12.871-5.917,17.147a9.3,9.3,0,0,1-6.693,2.856c-.31,0-.626-.016-.937-.046,1.6,14.077,2.642,28.492,3.57,42.05l.451,6.7c1.244,18.817,2.078,34.286,2.625,48.682.67,17.642.9,33.579.7,48.722a208.31,208.31,0,0,1-1.452,22.5,155.263,155.263,0,0,1-4.208,21.8,124.627,124.627,0,0,1-7.62,20.734,111.491,111.491,0,0,1-11.689,19.3,125.614,125.614,0,0,1-14.016,15.635,123.478,123.478,0,0,1-16.39,13.019,119.108,119.108,0,0,1-18.372,9.994A114.071,114.071,0,0,1,276.23,440.4,116.407,116.407,0,0,1,250.311,443.271ZM63,290.8l-.165,0a10.766,10.766,0,0,1-6.9-2.776,34.718,34.718,0,0,1-5-5.842c-.505-.685-1.027-1.392-1.553-2.072a6.867,6.867,0,0,1-1.67,2.04l-.46.36a8.407,8.407,0,0,1-5.027,2.036c-.092,0-.184,0-.273-.006a9.849,9.849,0,0,1-4.12-1.111,7.465,7.465,0,0,1-3.4-3.97,8.549,8.549,0,0,1,3.056-10.16l-.6-.413a12.088,12.088,0,0,1-3.389-3.245l-.207-.331h.08a3.241,3.241,0,0,1,1.861-4.78,9.719,9.719,0,0,1,3.016-.448c4.238,0,8.953,2.193,12.743,3.954.38.177.772.359,1.152.533,6.036,2.77,11.242,6.957,15.97,11.07,2.147,1.874,3,5.1,2.28,8.63l-.036.178c-.048.242-.1.491-.155.742a6.838,6.838,0,0,1-2.672,3.981A7.7,7.7,0,0,1,63,290.8Z" transform="translate(48 65.001)"></path></g></g><g transform="translate(159 186)"><g><path d="M15.9252 11.6746C25.7472 1.65261 51.3592 -8.04539 58.0782 10.4616C59.3582 13.9866 56.6332 18.7396 52.9632 19.4706C49.6471 20.1305 46.5373 19.632 43.413 19.1311C40.8749 18.7243 38.3271 18.3158 35.6512 18.5256C30.8182 18.9066 25.7772 20.5216 21.9132 23.5156C11.2112 31.8076 8.85721 45.8326 1.40021 56.3866C1.03721 56.9006 0.332206 56.6846 0.265206 56.0786C-1.43279 40.7136 5.16721 22.6506 15.9252 11.6746ZM164.471 1.74571C157.919 -0.296292 150.538 -0.493292 144.02 1.80871C140.872 2.92071 138.005 4.40171 135.378 6.45171C132.79 8.47171 131.676 10.5267 129.743 13.0307C129.356 13.5327 129.994 14.2247 130.537 14.0637C140.738 11.0477 154.631 13.0867 163.104 19.4867C166.689 22.1957 169.646 25.8837 171.372 30.0517C173.985 36.3617 174.902 42.3067 182.45 44.4907C185.823 45.4677 189.549 44.4077 192.02 41.9617L192.635 41.3517L192.843 41.141C197.439 36.3352 195.245 29.5801 190.11 26.6157C189.161 24.8407 188.283 21.8597 187.448 20.4167C185.876 17.6937 183.916 15.1357 181.798 12.8177C177.13 7.71171 171.071 3.80371 164.471 1.74571ZM156.036 44.5815C172.692 43.8015 183.053 61.9875 179.223 76.8885C178.561 79.4595 175.685 81.9835 172.909 81.6945L172.209 81.6301C171.854 81.596 171.497 81.5511 171.169 81.4605C168.533 80.7305 166.17 77.9885 166.362 75.1465L166.413 74.3184C166.801 67.2793 166.038 59.1692 157.673 57.4645C150.578 56.0185 146.617 62.8475 146.533 69.1335C146.517 70.2495 145.263 71.0285 144.276 70.4285C139.147 67.3075 138.259 61.0985 140.218 55.7515C142.701 48.9765 148.915 44.9145 156.036 44.5815ZM63.4997 61.6149C57.6307 50.8989 44.5537 44.4379 32.4327 48.4819C25.8267 50.6849 20.5927 56.2799 17.8997 62.5709C15.8467 67.3649 14.8117 75.7409 20.5707 78.5239C21.3347 78.8929 22.0987 78.8039 22.7357 78.2449C28.1577 73.4889 27.9337 65.3249 35.6637 62.6269C42.2807 60.3169 49.5447 64.6709 51.3347 71.2699L51.4015 71.5005C52.9774 76.6056 60.0783 78.726 63.8697 74.5789C66.2937 71.9279 66.9157 69.7239 67.3287 66.2279C67.6147 63.7979 65.5587 62.2109 63.4997 61.6149ZM150.214 87.9682C148.264 65.8832 117.473 73.0662 105.201 80.0942C104.352 80.5802 104.675 82.0962 105.722 82.0162C108.163 81.8301 110.587 81.5015 113.011 81.173C117.151 80.612 121.287 80.0515 125.495 80.2022C129.964 80.3642 137.1 81.2762 138.777 86.2682C140.672 91.9112 134.562 96.2222 129.979 97.5692L129.713 97.6467C125.466 98.8763 117.455 100.78 113.649 98.1962C106.243 93.1662 98.3377 104.175 104.298 110.315C111.459 117.692 126.126 113.85 134.401 110.448L134.732 110.309C143.555 106.552 151.11 98.1312 150.214 87.9682ZM43.3465 121.477C56.0075 119.94 68.3817 122.402 80.7379 124.859C85.1111 125.729 89.4821 126.598 93.8627 127.29C102.711 128.686 111.57 129.728 120.523 130.116C122.324 130.194 124.127 130.24 125.929 130.277C126.096 128.691 126.984 127.234 128.908 126.361C132.852 124.574 136.008 123.768 140.338 123.94C144.301 124.097 148.278 124.504 152.181 125.218C159.268 126.518 166.386 129.466 171.57 134.589C183.567 146.442 181.741 165.481 172.471 178.391C153.319 205.069 118.364 206.307 88.4261 205.959L85.6634 205.923C82.6154 205.879 79.4206 205.891 76.1327 205.904L76.121 205.904C50.0058 206.004 18.0177 206.126 7.01977 178.584C2.46558 167.179 3.09822 153.96 8.67421 143.021C15.3249 129.974 29.3247 123.179 43.3465 121.477ZM81.4794 137.485L78.0689 137.102C77.7892 137.07 77.5094 137.038 77.2297 137.006C68.0368 135.957 58.8485 134.909 49.6549 135.539C48.2839 135.634 46.8919 135.783 45.4969 135.988C47.1713 142.03 47.0306 149.126 47.7301 155.107C48.0005 157.42 48.3418 159.714 48.7199 161.999L50.3634 161.922C60.5285 161.371 70.7036 161.032 80.8767 160.628C80.8759 158.718 80.8864 156.807 80.9169 154.895L80.9545 152.983C80.9884 151.554 80.9853 150.072 80.9822 148.563C80.9748 144.913 80.9669 141.102 81.4794 137.485ZM99.1274 138.664C108.873 138.652 119.127 138.311 129.049 136.71C129.463 137.009 129.9 137.27 130.361 137.459L130.753 137.601C130.23 142.195 129.86 146.809 129.523 151.424L129.029 158.345L127.265 158.439C114.764 159.074 102.261 159.687 89.7565 160.254L89.3311 156.653C88.8541 152.537 88.4152 148.417 88.0313 144.292C87.8407 142.25 87.709 140.155 87.4555 138.085C91.3441 138.43 95.2347 138.669 99.1274 138.664ZM22.3597 149.574C26.3002 142.485 33.6324 138.61 41.3798 136.776C39.4864 142.644 39.3956 149.948 39.2149 155.765L39.1128 158.814C39.0769 160.004 39.0488 161.196 39.0268 162.39C32.3981 162.629 25.7374 162.918 19.1896 163.68C18.992 158.767 20.0208 153.781 22.3597 149.574ZM133.358 138.428C133.904 144.953 134.207 151.505 134.609 158.042L142.85 157.602C144.224 157.527 145.597 157.45 146.97 157.371C148.454 157.286 150.056 157.099 151.708 156.906C156.003 156.406 160.64 155.865 164.453 156.955C164.856 152.155 163.484 147.479 159.152 144.255C151.547 138.591 141.864 140.608 133.358 138.428ZM162.585 164.278C159.359 165.039 155.772 165.031 152.353 165.023C150.839 165.02 149.358 165.017 147.956 165.08C143.678 165.275 139.399 165.444 135.121 165.617C135.322 168.538 135.519 171.457 135.733 174.376C136.008 178.148 136.034 182.135 136.756 185.891C145.366 182.953 153.08 178.241 158.868 170.706C160.31 168.829 161.601 166.626 162.585 164.278ZM128.251 165.905L128.495 165.895C128.318 168.393 128.136 170.89 127.967 173.389C127.697 177.412 127.761 181.732 127.061 185.787C126.359 186.373 125.83 187.229 125.649 188.501L125.629 188.717C115.677 190.492 105.17 190.681 95.4074 190.604C95.2976 190.367 95.1879 190.129 95.0362 189.893C94.6001 189.21 94.0144 188.74 93.3688 188.448L93.4296 188.028C93.5443 187.307 93.3051 186.307 93.0891 185.404C92.9875 184.979 92.891 184.576 92.8389 184.233C92.4547 181.703 92.0855 179.17 91.7413 176.635C91.3022 173.412 90.918 170.182 90.5419 166.953C103.117 166.73 115.683 166.39 128.251 165.905ZM21.2471 173.269C20.3321 171.062 19.7204 168.691 19.4061 166.269C25.8672 166.917 32.448 167.056 38.9849 167.117C39.0069 172.956 39.2992 178.802 40.1125 184.552C40.4388 186.865 41.731 188.215 43.3585 188.777C33.9787 186.944 25.1138 182.593 21.2471 173.269ZM80.9375 167.124C71.8788 167.278 62.8162 167.397 53.7594 167.286L49.6479 167.223C50.5161 171.881 51.461 176.523 52.2463 181.212C53.0656 186.099 48.7639 189.206 45.0409 189.081C45.459 189.149 45.8761 189.22 46.2942 189.279C55.9646 190.647 65.9434 190.576 75.817 190.505C77.8197 190.491 79.8181 190.477 81.8087 190.475C81.3529 187.814 81.3567 184.909 81.3601 182.337L81.3601 182.337C81.3614 181.325 81.3627 180.365 81.3358 179.491L81.3177 179.012C81.1371 175.047 81.0104 171.086 80.9375 167.124Z" transform="translate(50.00019 64.99949)" fill-rule="evenodd" stroke="none"></path></g></g><g transform="translate(123 338)"></g><g transform="translate(47 241)"><g><path d="M375.513 33.9959C378.273 31.6829 383.089 31.1349 386.423 31.1279C394.028 32.5829 390.88 44.1729 376.385 36.9629C398.166 128.052 258.709 131.937 282.237 45.3469C268.157 41.9599 253.29 41.6839 240.365 48.1139C251.522 87.8139 214.401 125.982 171.734 116.181C144.179 109.783 125.789 88.4229 134.308 57.0269C128.899 58.7229 118.76 57.3109 115.622 53.0899C104.775 52.1634 93.9913 50.8415 83.2204 49.5212C59.091 46.5633 35.0273 43.6135 10.4674 45.1359C7.12749 45.5983 7.31436 47.952 7.50111 50.304C7.68714 52.6469 7.87304 54.9883 4.57241 55.4569C-3.01759 54.7649 -0.0355915 41.9389 5.39841 39.8539C13.0234 34.3889 78.5984 39.8119 116.105 49.6479C121.083 46.3825 128.583 47.3802 134.493 48.1664C135.445 48.2929 136.355 48.414 137.206 48.5109C144.594 30.0029 168.272 6.93191 192.028 10.8229C213.793 12.0919 232.079 20.6889 239.509 45.2399C250.854 34.9489 271.426 31.6259 284.509 39.4079C291.765 23.0939 304.532 10.8229 321.737 5.28991C343.585 -10.2001 368.707 11.0429 375.513 33.9959ZM358.311 87.4579C346.17 100.003 325.902 103.603 309.749 96.8749C268.273 79.5459 288.574 25.4959 320.561 10.9809C324.557 9.98491 329.894 7.62191 334.761 7.08591C334.928 7.0043 335.168 7.04274 335.465 7.09029C335.954 7.1686 336.598 7.27161 337.32 6.90391C372.591 10.8419 380.623 65.5939 358.311 87.4579ZM164.916 105.906C185.6 114.302 210.916 108.73 224.533 90.6689C249.948 57.3679 225.561 0.903908 166.504 23.0949C138.547 41.8849 124.054 89.8139 164.916 105.906ZM135.953 50.6509C135.915 50.6329 135.877 50.6239 135.838 50.6059C136.054 50.5109 136.27 50.4159 136.485 50.3189C136.415 50.5019 136.339 50.6829 136.271 50.8659C136.165 50.7929 136.072 50.7079 135.953 50.6509Z" transform="translate(13.99969 7.999794)" fill-rule="evenodd" stroke="none"></path></g></g></g></g></svg>